<svg width="972" height="972" viewBox="0 0 972 972" fill="none" xmlns="http://www.w3.org/2000/svg">
<rect width="971.7" height="971.7" rx="200" fill="white"/>
<g filter="url(#filter0_d_2_31)">
<path d="M539.726 212H431.946C410.959 212 393.946 229.013 393.946 250V356.333C393.946 377.32 376.933 394.333 355.946 394.333H252C231.013 394.333 214 411.347 214 432.333V539.489C214 560.475 231.013 577.489 252 577.489H355.946C376.933 577.489 393.946 594.502 393.946 615.489V721C393.946 741.987 410.959 759 431.946 759H539.726C560.713 759 577.726 741.987 577.726 721V615.489C577.726 594.502 594.739 577.489 615.726 577.489H722C742.987 577.489 760 560.475 760 539.489V432.333C760 411.347 742.987 394.333 722 394.333H615.726C594.739 394.333 577.726 377.32 577.726 356.333V250C577.726 229.013 560.713 212 539.726 212Z" fill="white"/>
<path d="M539.726 212H431.946C410.959 212 393.946 229.013 393.946 250V356.333C393.946 377.32 376.933 394.333 355.946 394.333H252C231.013 394.333 214 411.347 214 432.333V539.489C214 560.475 231.013 577.489 252 577.489H355.946C376.933 577.489 393.946 594.502 393.946 615.489V721C393.946 741.987 410.959 759 431.946 759H539.726C560.713 759 577.726 741.987 577.726 721V615.489C577.726 594.502 594.739 577.489 615.726 577.489H722C742.987 577.489 760 560.475 760 539.489V432.333C760 411.347 742.987 394.333 722 394.333H615.726C594.739 394.333 577.726 377.32 577.726 356.333V250C577.726 229.013 560.713 212 539.726 212Z" stroke="black" stroke-width="50"/>
</g>
<defs>
<filter id="filter0_d_2_31" x="185" y="187" width="604" height="605" filterUnits="userSpaceOnUse" color-interpolation-filters="sRGB">
<feFlood flood-opacity="0" result="BackgroundImageFix"/>
<feColorMatrix in="SourceAlpha" type="matrix" values="0 0 0 0 0 0 0 0 0 0 0 0 0 0 0 0 0 0 127 0" result="hardAlpha"/>
<feOffset dy="4"/>
<feGaussianBlur stdDeviation="2"/>
<feComposite in2="hardAlpha" operator="out"/>
<feColorMatrix type="matrix" values="0 0 0 0 0 0 0 0 0 0 0 0 0 0 0 0 0 0 0.25 0"/>
<feBlend mode="normal" in2="BackgroundImageFix" result="effect1_dropShadow_2_31"/>
<feBlend mode="normal" in="SourceGraphic" in2="effect1_dropShadow_2_31" result="shape"/>
</filter>
</defs>
</svg>
